<?xml version="1.0" encoding="UTF-8"?>
<svg xmlns="http://www.w3.org/2000/svg" viewBox="0 0 513.38 513.39">
  <defs>
    <style>.cls-1{fill-rule:evenodd;}.cls-2{fill:#eb7d22;}.cls-3{fill:#51aa37;}.cls-4{fill:none;stroke:#1d1d1b;stroke-miterlimit:10;stroke-width:3px;}.cls-5{font-size:30px;fill:#1d1d1b;font-family:Cambria-Bold, Cambria;font-weight:700;}</style>
  </defs>
  <g id="Layer_2" data-name="Layer 2">
    <g id="Layer_1-2" data-name="Layer 1">
      <path class="cls-1" d="M236,107.09c.43-4,7.67-6.33,14.94-3,10.22,5.76,10.11,17.06,10.88,21.63,1.38-6.63,2.66-16.53-2.24-23.88-4.72-7-15.25-10.1-27.63-9.46-7,.32-12.32,2.17-13,5.57-1.82,5.8,9.56,8.2,17,9.14h0"></path>
      <path class="cls-1" d="M261.47,84.7a36.25,36.25,0,0,0,14-7.71v41.92c.84,6,5.88,9.34,14.87,10.12,4.58.41,32.08-.3,29.05-4.93-1.15-1.79-5-2.31-7.94-2.3-2.75,0-4.95.78-6.23,2.67-5.12-3.32-10.75-5.36-17.31-4.47,6.3-7.3,21.6-12.51,34.23-7.08,2.43,1.1,4.67,2.42,6.9,3.69a67.74,67.74,0,0,0,15.78,6.63c9.65,2.58,16,1.07,23.14,3.4-7.19,3.73-14.33,8.62-16.27,12.87-11.78-6.67-18.23-7.12-24.88-6.76-9.95.56-17.51,4.14-26.68,5.44-12.85,1.81-19-1.05-24.66-4.05-4.91,13.25-28.56,25.82-50.73,15.27-14.1-8.26-8.84-21.35,2.43-27.1-3.45,10.61,1.79,17.1,12.12,19.89,15.35,2.93,25.15-3.52,26.45-10.56V93.3c.36-7.74-3.23-7.31-4.26-8.6h0"></path>
      <path class="cls-1" d="M205.29,78.43a27.81,27.81,0,0,0,14.56,5.35c-1.23,3.25-4,6.55-5.48,9.76v31.7c-.68,8.65-5.62,14.24-13.65,17.48-11.36,4.79-27.36,6.42-39.48,2.37-12.56-6.45-11.22-14.67-2.41-23.66-1.11,10.8,9.86,18.86,28.83,16.51,10.1-1.27,16.25-7.57,16.41-13.91V93.66c-1.66-3-5-4.47-8.42-5.45,4.8-2.7,8.09-5.93,9.64-9.78h0"></path>
      <path class="cls-1" d="M152,207.54c3.49-1.73,9.49-3.89,15.8-2.11,9.46,2.55,7.79,12,6.87,17.72a97.08,97.08,0,0,1-3.39,13.45c-4.7,14.77-7.62,24.36,8.51,24.55s134.94.24,141.36,0,23.72-3.13,27.23-21.43c-3.36,6.86-24.3,5.82-24.3,5.82s-120,.42-134.89,0-13.79-9.57-11.76-17.1c1.55-5.6,3.88-10.41,5.69-17.84,1.52-6.2,3-15.34-5.23-18.56-6.42-2.53-15.85-1.32-20.39,2.93-2.48,2.26-4.22,3.12-5.5,3.26V149.05l-12.77,13.11v93.72L152,242.78V207.54"></path>
      <polyline class="cls-1" points="269.5 162.16 282.27 149.05 282.27 223.73 269.5 236.8 269.5 162.16"></polyline>
      <path class="cls-1" d="M293.47,208.65c-.33-3.08,1.28-11.2,3.08-16.45,1.25-3.45,5.65-8,12.79-6.83a10.18,10.18,0,0,1,4.39,1.73c5.74,3.87,3.62,9.18,2.09,13.92-1.05,3.44-1.46,6-3.2,8.43-2.34,3.36-7.81,4.4-9.94,7.47-1.58,2.17-1.14,4.81,2.42,5.53,2.36.43,6.92-.65,7.9-2.52A21.07,21.07,0,0,1,318,205c-.75,14.21,28.12,29.32,43.45,12.87v.5c.61,12.32-18.41,23-35.69,17.58a19.27,19.27,0,0,1-12.17-10.35c-.11-.23-.44-1.08-.44-1.08-5.4,2.4-4,10.73-13.72,10.79-3.51,0-8.44-2.58-8.23-8.32a21.12,21.12,0,0,1,6.32-14.83c3.31-3.21,7.23-5.21,10.3-7,3.75-2.13,4.34-5.07,1.48-6.85-7.28-4.61-14.34,7.23-15.8,10.31h0"></path>
      <path class="cls-1" d="M193.07,208.65c-.34-3.08,1.23-11.2,3.05-16.45a11.39,11.39,0,0,1,12.79-6.83,10.66,10.66,0,0,1,4.44,1.73c5.69,3.87,3.56,9.18,2.09,13.92-1.12,3.44-1.52,6-3.23,8.43-2.34,3.36-7.81,4.4-10,7.47-1.58,2.17-1.11,4.81,2.49,5.53,2.29.43,6.85-.65,7.93-2.52A20.63,20.63,0,0,1,217.59,205c-.76,14.21,28.07,29.32,43.37,12.87l0,.5c.61,12.32-18.4,23-35.71,17.58a19.06,19.06,0,0,1-12.12-10.35,9.32,9.32,0,0,1-.46-1.08c-5.39,2.4-4,10.73-13.76,10.79a8,8,0,0,1-8.2-8.32,21.19,21.19,0,0,1,6.3-14.83c3.34-3.21,7.22-5.21,10.34-7,3.76-2.13,4.3-5.07,1.48-6.85-7.32-4.61-14.36,7.23-15.8,10.31h0"></path>
      <polyline class="cls-1" points="367.95 162.16 380.75 149.05 380.75 242.78 367.95 255.88 367.95 162.16"></polyline>
      <path class="cls-1" d="M327.41,287.17l-2.69-7.82L322,287.17h5.37m1.59,4.69h-8.62l-1.16,3.59h-7.73l9.2-21.71h8.2l9.23,21.71h-7.94Zm-40.73-18.12h7.54v21.71h-7.54Zm-31.94,4.94v11.87h1.86a8,8,0,0,0,3.38-.53,2.83,2.83,0,0,0,1.54-1.59,9,9,0,0,0,.59-3.8c0-2.28-.43-3.86-1.26-4.69a6,6,0,0,0-4.23-1.26Zm-7.52-4.94H260a14.89,14.89,0,0,1,5.35.8,8.46,8.46,0,0,1,3.39,2.31,9,9,0,0,1,1.94,3.48,15,15,0,0,1,.61,4.18,13.44,13.44,0,0,1-.91,5.41,8.72,8.72,0,0,1-2.48,3.2,8.13,8.13,0,0,1-3.36,1.73,20.64,20.64,0,0,1-4.54.6H248.81Zm-41.19,0h7.07l9.18,12v-12H231v21.71h-7.1l-9.17-11.92v11.92h-7.08Zm-25.76,0h7.56v21.71h-7.56Z"></path>
      <path class="cls-2" d="M388.29,299.56s4.5,7.28-14,25.07S328.8,367,324,371.81,311.09,384.38,313.07,394c2.62,12.28-2,15.83-13.09,13.69-9.3-1.83-15.21-4.34-23.16-8-8.34-3.89-15.2-8.09-16.85-9.8v0c-1.67,1.71-8.52,5.91-16.86,9.8-7.94,3.66-13.83,6.17-23.19,8-11,2.14-15.68-1.41-13.07-13.69,2-9.57-6-17.32-10.88-22.14s-31.79-29.43-50.31-47.18-14-25.07-14-25.07c-14.83,8.25-7,17.68,4.83,29.44s43.71,41.39,52.26,49.2c7.12,6.55,9.49,9.66,9.07,16.12-.2,2.47-10.07,23.92,19.24,20.9,9.26-1,18.82-4.55,29.17-9.52,3.72-1.78,7.33-3.81,10-7a11,11,0,0,0,.91-1.19c2.08-2.4,2.8-7.43,2.83-7.67,0,.24.74,5.27,2.81,7.67a9.9,9.9,0,0,0,.92,1.19c2.72,3.15,6.3,5.18,10,7,10.38,5,19.9,8.53,29.2,9.52,29.31,3,19.37-18.43,19.25-20.9-.41-6.46,1.91-9.57,9.09-16.12,8.5-7.81,40.44-37.49,52.26-49.2s19.66-21.19,4.81-29.44"></path>
      <path class="cls-3" d="M411.5,313.67s3.2,7.28-12.38,23.25-38.27,38.21-42.44,42.47S343,391.76,345.24,403.67c.82,4,2.25,7.72,3.18,12.49.75,3.75-.93,7.71-3.68,9.39-2.47,1.87-9.58,3.61-13.39-.56a9.8,9.8,0,0,1-2.09-3.61,12,12,0,0,1,.3-8.14c2-4.21,7.11-7.85,8.61-9.34,3-2.18,5.24-8-2.74-11.9-19.3-7.86-54-18.12-64.44-18.54s-11,11.19-11,11.19c2.67-4.58,10.11-3.79,12.18-3.45a.24.24,0,0,1-.17,0c30.3,5.71,45.2,12.59,50.67,15.58,1.72,1,4.17,2.45,4.79,2.87a9.58,9.58,0,0,1,2.13,1.72,4.93,4.93,0,0,1,.77,5.25,15.26,15.26,0,0,1-2.5,4c-1,1.27-3.34,3.64-4,4.33-1.1,1.31-1.92,2.26-1.92,2.26a11.2,11.2,0,0,0,.31,14.85c4.6,4.78,13.06,6.8,21.63,1.27,7.08-4.55,7.89-9.83,6.46-16.27-2.85-12.8.23-17.29,1.64-19.2a126.42,126.42,0,0,1,10.13-11.91c7-7.19,34.1-33.7,44.09-44.26s16.71-19.18,5.3-28M248.89,373.46c-10.36.42-45.09,10.68-64.43,18.54-7.89,3.86-5.65,9.72-2.68,11.9,1.51,1.49,6.6,5.13,8.61,9.34a12.09,12.09,0,0,1,.29,8.14,9.83,9.83,0,0,1-2.1,3.61c-3.82,4.17-10.93,2.43-13.37.56-2.76-1.68-4.42-5.64-3.68-9.39.88-4.77,2.36-8.5,3.13-12.49,2.36-11.91-7.3-20.05-11.37-24.28-4.23-4.26-26.84-26.45-42.46-42.47s-12.41-23.25-12.41-23.25c-11.39,8.81-4.67,17.4,5.33,28s37.1,37.07,44.1,44.26A123.94,123.94,0,0,1,168,397.83c1.4,1.91,4.48,6.4,1.62,19.2-1.39,6.44-.57,11.72,6.51,16.27,8.56,5.53,17,3.51,21.57-1.27a11.19,11.19,0,0,0,.33-14.85s-.82-.95-1.9-2.26c-.61-.69-3-3.06-4-4.33a15.44,15.44,0,0,1-2.47-4,5.09,5.09,0,0,1,.76-5.25,8.72,8.72,0,0,1,2.13-1.72c.61-.42,3.08-1.91,4.8-2.87,5.42-3,20.36-9.87,50.66-15.58a.26.26,0,0,1-.18,0c2.12-.34,9.53-1.13,12.2,3.45C260,384.65,259.32,373,248.89,373.46Z"></path>
      <path class="cls-2" d="M17.37,253.26a10,10,0,0,1,7.42,3.2,10,10,0,0,1,3,7.54,10.59,10.59,0,0,1-3.12,7.53,10.22,10.22,0,0,1-7.48,3.09,10.12,10.12,0,0,1-7.43-3.24,10.05,10.05,0,0,1-3-7.54,10.46,10.46,0,0,1,3.13-7.55,10.22,10.22,0,0,1,7.47-3"></path>
      <polyline points="36.4 213.69 5.24 205.87 6.81 199.5 19.09 202.61 22.13 190.08 9.88 187.02 11.44 180.62 42.58 188.43 41.03 194.83 27.4 191.4 24.37 203.92 37.96 207.31 36.4 213.69"></polyline>
      <path d="M55.1,155.4l-2.64,6.65-7.82-.13-4.81,12,5.8,5.33L43,185.76l-25.12-24,2.55-6.48,34.65.11m-16.25,6.43-12.73-.37,9.43,8.62Z"></path>
      <polyline points="56.08 153.08 28.49 137.26 31.65 131.59 54.54 144.7 62.43 130.51 67.14 133.21 56.08 153.08"></polyline>
      <path d="M87.26,105.87l-4.2,5.76-7.57-2.19-7.74,10.48L72,126.51l-4.15,5.63L49.59,102.28l4.18-5.59,33.49,9.18m-17.36,2-12.23-3.66L64.61,115Z"></path>
      <polyline points="89.67 103.15 67.09 80.85 71.6 76.18 90.32 94.73 101.46 83.13 105.27 86.93 89.67 103.15"></polyline>
      <polyline points="118.22 75.8 99.05 50.48 104.07 46.57 123.27 71.88 118.22 75.8"></polyline>
      <polyline points="128.45 67.83 112.02 40.95 117.22 37.65 139.04 48.77 128.03 30.83 133.04 27.72 149.48 54.58 144.09 57.96 122.68 47.18 133.42 64.67 128.45 67.83"></polyline>
      <path d="M143.22,22.06l10.55-4.76a22.67,22.67,0,0,1,5.72-1.84,10.56,10.56,0,0,1,5.52.73,13.69,13.69,0,0,1,4.75,3.51,25,25,0,0,1,3.91,6.42,21.56,21.56,0,0,1,1.81,6.59,13.65,13.65,0,0,1-.85,6.48,10.86,10.86,0,0,1-3,4.15,18.92,18.92,0,0,1-4.88,2.93l-10.88,4.84-12.6-29m7.93,2.3,8.34,19.29,4.33-1.94a17.35,17.35,0,0,0,3.39-1.84A6.81,6.81,0,0,0,169,37.61a6.58,6.58,0,0,0,.3-3.47,22.58,22.58,0,0,0-1.72-5.57,20.21,20.21,0,0,0-2.82-4.94,7.59,7.59,0,0,0-2.88-2.09,6.64,6.64,0,0,0-3.27-.17,26.57,26.57,0,0,0-4.89,1.87Z"></path>
      <polyline points="184.72 38.8 174.99 8.56 181.03 6.54 190.75 36.8 184.72 38.8"></polyline>
      <path d="M225.22,28.74l-6.81,1.52-4.24-6.57-12.43,2.76-1,7.71-6.65,1.47,5.3-34.17L206,0l19.21,28.74M211,18.86,204.21,8.1l-1.7,12.61Z"></path>
      <path class="cls-3" d="M282.33,11.57a10.51,10.51,0,0,1-3.12,7.52,10.51,10.51,0,0,1-14.91-.16,10.47,10.47,0,0,1-3-7.57,10.39,10.39,0,0,1,3.19-7.52A10.06,10.06,0,0,1,272,.8,10,10,0,0,1,279.32,4a10.39,10.39,0,0,1,3,7.58"></path>
      <path d="M335.2,34.32a8.77,8.77,0,0,0,6.36-1.94l.78-1.23.21-.59,0-.81-.62-1-1.4-.94a9.13,9.13,0,0,0-.9-.27c-.15,0-1-.1-2.71-.19a14,14,0,0,0-1.9.07c-.68.11-1.24.17-1.66.23a10.88,10.88,0,0,0-3.16,1,4,4,0,0,0-1.87,2.07l-.25.68.06.78c.13,2.29,1.58,5,4.39,8A13.7,13.7,0,0,0,335.61,43L339,45l-2.44-.13-2.68-.94q-7.65-4.83-9.94-8a15.7,15.7,0,0,1-1.09-1.65,10.31,10.31,0,0,1-.74-1.61,5.19,5.19,0,0,1,0-2.85,7.53,7.53,0,0,1,2.2-2.83l1.9-1.33,2.36-1.31-.85-1.74-.56-2-.34-2.31.36-1.87.58-1a2.73,2.73,0,0,1,2.38-.69l1.82.37L343.66,19l1.55-4.53L327.47,8.1l-2.08-3.35L357,16.05l1.92,3.33-8.35-3L348.52,23l-14-4.75a1.94,1.94,0,0,0-2.47.5l-.1,1.23.43,1.81.34,1,.53,1.31,1.45.09,1.51.12,2.16.32,1.85.55,2.73.94a8.27,8.27,0,0,1,4,3,4.46,4.46,0,0,1,.61,4.35c-.82,2.29-2.6,3.73-5.49,4.3a11,11,0,0,1-3.07.19l-2.76-1.07-1.06-2.51"></path>
      <path d="M361.42,54.18l-2.52-1.37c-.49-1-.94-2-1.43-3.1s-.79-2-1.08-2.9a19,19,0,0,1-1-9.77,12.9,12.9,0,0,1,1.28-3.67A7.88,7.88,0,0,1,361,29.51a7,7,0,0,1,5.66.54l2.53,1.38a9.26,9.26,0,0,1,1.69,1.41,7.34,7.34,0,0,1,1.65,1.78l1,1.53.82,1.81.38-.13.4-.18.38-.08.38-.16c1.35-.24,3.2.3,5.5,1.53L384.47,33,360.91,20.08,360.2,17l34.85,19.06,1.43,3.49-6.64-3.64-14.12,26.5-2.53-1.36L371.71,57,380,41.39l-1.28-.06-1.42.24a13.67,13.67,0,0,0-2.71.94L371.5,44,369,42.63l-1.2-3.1,1.24-.26,1-.35.18-.06.33-.14a10.53,10.53,0,0,0-1.43-2.89,13.08,13.08,0,0,0-2.1-2.41,4.18,4.18,0,0,0-2.58-.08A5.08,5.08,0,0,0,361.83,35l-.48,1a11.13,11.13,0,0,0-1,3,21.29,21.29,0,0,0,.29,5.7,40.48,40.48,0,0,0,2.13,8.18l-1.35,1.29"></path>
      <polyline points="397.07 41.03 396.21 37.24 411.97 48.54 412.88 52.36 406.48 47.75 389.37 72.25 387.03 70.57 386.14 66.41 401.6 44.24 397.07 41.03"></polyline>
      <path d="M406.29,85.56l-2.1-1.94c-.25-1.11-.49-2.2-.65-3.33a30.09,30.09,0,0,1-.37-3.08,19.57,19.57,0,0,1,1.33-9.73,13.58,13.58,0,0,1,2.18-3.23,7.55,7.55,0,0,1,5-2.7A6.71,6.71,0,0,1,417,63.4l2.12,2a10.1,10.1,0,0,1,1.36,1.76,7.34,7.34,0,0,1,1.19,2.14l.63,1.66.37,2h.4l.4,0h.4l.42,0c1.32.15,2.94,1.12,4.88,2.9l4.5-5L413.85,52.47l.14-3.31,29.32,27L443.8,80l-5.65-5.16L418.26,97.1l-2.14-2-.48-4.33,11.66-13-1.22-.36-1.43-.16a12.6,12.6,0,0,0-2.77.16l-3.27.6-2.12-2L416,72.8l1.34.07,1-.07.26-.09.32,0a12,12,0,0,0-.78-3.12,16.54,16.54,0,0,0-1.47-2.78,5.1,5.1,0,0,0-2.47-.74,4.85,4.85,0,0,0-2.83,1l-.72.78A9.47,9.47,0,0,0,409,70.53a21.44,21.44,0,0,0-1.14,5.62,39.48,39.48,0,0,0,.06,8.47l-1.61.94"></path>
      <path d="M456.82,123l-.19-.3-.19-.22-.23-.4-1.14-1.25a1.21,1.21,0,0,0-.69-.48c-.2-.27-.31-.48-.43-.64l-.4-.61-1.62-2.4a5.82,5.82,0,0,1,.2-7.3,6.13,6.13,0,0,1,1.63-1.74l1.42-.73a2.94,2.94,0,0,1,2.67.41l1.35,1.37,5.4,8.08,4.49-3.09L458.77,98.4l.43-3.88,18.66,27.71-.4,3.87-5.28-7.83-6,4.69-6.94-10.08-1.31-.24-1.05,0-.83.11-.6.32a2.58,2.58,0,0,0-1,2.14v1l.36.84-.05.18,1.05,1.33,1.45,1.54,1,1.21.68,1,1.68,2.43.08.12.15.25.17.23a8.09,8.09,0,0,1,0,4.23,6,6,0,0,1-2,3q-3,2.1-7.1,0a13.84,13.84,0,0,1-2.83-1.93l-1.17,12.6-1.57-1.66-1.66-2.4,1.11-12.33,1.6,2.36L447,129l-.29-.24-.37-.41-.46-.72-1.58-2.44a6.08,6.08,0,0,1-1.21-2.87,8.12,8.12,0,0,1,.31-2.47,18.25,18.25,0,0,1,1.26-2.23,1.2,1.2,0,0,1,.64-.31l.55-.1c.66-.1,1.37.33,2.23,1.24l1.69,2.29.13.44.44.64.21,1.14.14.88-.06,2.08-.41,1.89.33.3a3.41,3.41,0,0,0,4.68.28,2.54,2.54,0,0,0,.94-1l.68-.85a4.23,4.23,0,0,0,.12-3.28l-.19-.28"></path>
      <polyline points="486.5 121.79 482.39 120.64 480.94 118.14 482.07 113.79 486.26 114.82 487.74 117.31 486.5 121.79"></polyline>
      <path d="M487.82,128.36l1.53-1a5.34,5.34,0,0,1,5.14-.26,9.23,9.23,0,0,1,4.13,4.35L500,134a27.39,27.39,0,0,1,1.83,5.56,47,47,0,0,1,.2,15.65,76.08,76.08,0,0,1-2.1,9.21l-1.28-2.57-1.11-2.22a66,66,0,0,0,1.8-15,32.16,32.16,0,0,0-.5-4.7l-1-3.95a5,5,0,0,0-2.62-2.26c-1.14-.65-2.53-.54-4.16.31a13.75,13.75,0,0,0-3.62,3.09l-1.12,1.59,2.3,4.41-.77,3.73-3.62-7.07-26.32,14-1.32-2.58,1-4,23.92-12.72-2.22-4.33.81-3.59,3.6,7a20.35,20.35,0,0,1,4.23-5.23"></path>
      <path d="M475.2,155.74l1,2.68-2.06,2.94-1.28,2.32a16.38,16.38,0,0,0-2.11,9.12l.82,1,.83.83a9.08,9.08,0,0,0,2.87,2,7.81,7.81,0,0,0,3.1.77l.81-.33.44-.44c.9-.59,1.35-1.75,1.46-3.39l-.11-1.09-.16-1.21-.12-.25,0-.21-.51-1.22-1.07-2.86-.36-.92-.58-1.47-.11-.31a8.24,8.24,0,0,1,.52-2.08l1-1.78,1.39-1.42,1.58-.92a3.39,3.39,0,0,1,2.44-.2l.55.11.42.21.88.62a2.21,2.21,0,0,1,.49.86l4.51,11.75,4.81-1.91-8.49-22.23,1.28-3.7L503,178.75l-1.2,3.68-3.11-8-6.77,3-5.07-13.16-.39-.32-.12-.23-.08-.3a2.32,2.32,0,0,0-1.16-.61l-1.16.07a2.86,2.86,0,0,0-2,2.81l.05,1.38.46,1.57.24.61a1.55,1.55,0,0,0,.36.58l1,2.7c.23.65.48,1.38.72,2.11l.14,1.73a6,6,0,0,1-4.19,5.78,8.94,8.94,0,0,1-6.83-.15,8.85,8.85,0,0,1-5-5.38l-1-2.71a11.52,11.52,0,0,1-.86-3.84c-.19-2.72.73-6,2.67-9.75a25.84,25.84,0,0,1,1.61-2.62c.63-.86,1.36-1.84,2.21-2.84l1.65.9"></path>
      <path d="M492,192.52l-.05.86c.73,1.19,2.28,1.52,4.57,1a16.08,16.08,0,0,0,5.54-2.29l1.45-1L502,184l1.75-3.44,7.76,35.06-1.78,3.46-1.78-8-29,6.58-.62-2.85,1.84-3.62,7.21-1.64a10.24,10.24,0,0,1-2.73-5.19l-.8-3.61-.24-1.35.08-2.12.76-2.2.76-1.55a8.91,8.91,0,0,1,6.4-4.86l.73,2.81-.31,1m-3.79,4.38-1,1.8-.33,1.32,0,1.49.17.89.47,1c.17.42.35.7.5.75l.58.89c.26.41.51.74.7,1s.56.64,1.09,1.13a12.23,12.23,0,0,0,1.88,1.26l14.31-3.23-1.89-8.54-3.77,2.1a12,12,0,0,1-3.65,1.29,9.66,9.66,0,0,1-5.05.05,3.77,3.77,0,0,1-2.44-2.55L489,193.7l.26-1,.72,2.78A17,17,0,0,0,488.22,196.9Z"></path>
      <polyline points="509.15 219.52 511.24 216.27 513.38 235.76 511.27 238.98 510.44 231.11 480.93 234.46 480.62 231.55 483.09 228.1 509.77 225.09 509.15 219.52"></polyline>
      <path class="cls-2" d="M499.4,287.17A9.87,9.87,0,0,1,492,284.1a10.18,10.18,0,0,1-3.17-7.5,10.31,10.31,0,0,1,3-7.57,9.84,9.84,0,0,1,7.38-3.22,10.16,10.16,0,0,1,7.46,3,10.77,10.77,0,0,1,.2,15.1,10.37,10.37,0,0,1-7.45,3.22"></path>
      <path class="cls-3" d="M261.09,502.49a10.59,10.59,0,0,1,3-7.57,10.22,10.22,0,0,1,7.41-3.2,10.08,10.08,0,0,1,7.48,3.07,10.41,10.41,0,0,1,3.14,7.5,10.2,10.2,0,0,1-3,7.58,10.31,10.31,0,0,1-7.44,3.22,10,10,0,0,1-7.43-3.07,10.39,10.39,0,0,1-3.16-7.53"></path>
      <path d="M415,439.94c5.86,7.21,10.23,13.8,10.23,13.8,1.54-9.31-2.63-13.33-5-16.69s-6.36-7.81-6.36-7.81l0-2.12-7.05-6.75-.19,9.14s1.89,2.52,8.4,10.43"></path>
      <path d="M32.22,338.81c-.94,5.56-7.31,6.79-7.31,6.79-4.17-7.93-6.64-19.81-7.32-22.19s1.92-3.22,1.92-3.22L47.1,306.94l-7.91-2.87S16.42,315,12,317.13,9.74,323,9.74,323c2,10.88,8.89,27,8.89,27l2.77.08c12.83.72,18.34-8.42,18.34-8.42l-7.52-2.84"></path>
      <polyline points="7.19 347.48 8.66 343.43 2.79 339.99 0 347.48 3.58 349.84 2.07 354.06 7.71 357.52 11.19 349.9 7.19 347.48"></polyline>
      <path d="M56.29,360.8l4.17-.26a3.61,3.61,0,0,0,3.51-3c.69-3,.89-5.08-1.91-6.55s-5-2.85-5-2.85A9.81,9.81,0,0,0,60,346.67c1-.93,2.32-1.94,2.32-1.94v1l2.92-.17s-1.23-3.73.46-5l-3.54-.25-.43,1.6-5.94,4.5s-1.74,1.28-3-.91a42.17,42.17,0,0,1-2.26-4.83l-2.42,4.62,8.16,15.47m3-9c2.32,1.47,1.48,3.47,1.19,4.89s-1.21,1.23-1.21,1.23l-4.39-8.86S57.05,350.34,59.31,351.8Z"></path>
      <path d="M68.13,397.52l-7.54-1.82c-.36,4.22-5.63,7.07-5.63,7.07-7.81-9.21-13.07-22-13.07-22l9-18.73-6.54.23L38,375.05s-6-7-6.65-12.9a4.41,4.41,0,0,1,2.81-4.77,31.68,31.68,0,0,0-8,2.61c-3.18,1.64-1.44,5.54-1.44,5.54A61.52,61.52,0,0,0,32,379.64l3.33-.06-1.21,3.28c5.44,12,14.34,24.7,14.34,24.7l6.6-.4c10.44-1.4,13.07-9.64,13.07-9.64"></path>
      <polyline points="77.68 396.36 79.69 389.1 73.67 386.56 71.4 394.14 77.68 396.36"></polyline>
      <path d="M86,408.47l6.12-8.09-12.43.41L55.31,426.17a21.2,21.2,0,0,0,16.24-6.42l11-11.1,3.4-.18"></path>
      <path d="M131.63,443.92l1.72,2.05,5.42-3.85s-1.84-3.13-3.88-6.2-.76-4.5-.76-4.5l-7.44,3c-.7,1.44.71,3.68.71,3.68s-12.33,21.8-15.63,26.56c-3.91,4-15.18-2.22-15.18-2.22-10.89-9.08,4.8-21.14,4.8-21.14a39.29,39.29,0,0,0-11.75,9.15,13.29,13.29,0,0,0-1.89,13.95c3.63,9.1,20.68,9.67,20.68,9.67,3.55-1.18,11.81-10,12.3-11s10.9-19.15,10.9-19.15"></path>
      <path d="M202.06,492.3c-4.13-8.22-7.32-7.56-7.32-7.56l-9.67,2.07c2.26.4,5.35,3.11,7.1,6.42a77.73,77.73,0,0,0,4.66,7.2c-18.35-6.11-31.52-11.62-35.72-13.69s-2.55-5.19-2.55-5.19l8.37-26.3L158,460.18s-3.76,12.88-5.12,15.64-5.59,3.11-5.59,3.11c1.13-14.86-3.74-24.56-5.2-27.34s-4.12,0-6.49,2.21-1.09,4.75-.57,7.47,3.24.91,3.24.91c5.07,6.63,3.9,18.79,3.9,18.79-7.06,2.58-21.42,4-21.42,4a143.32,143.32,0,0,0,15.13,4.43c8.69,2.07,14.87-5.62,14.87-5.62l-1,4.14c-1,4.1,5,5.8,5,5.8,13.15,6.27,35.95,12.63,35.95,12.63a18.9,18.9,0,0,1,18,7l8.63-3.87c-5.37-2.54-11.16-9-15.32-17.22"></path>
      <path d="M496.76,335.65c1.38-2.69,3.88-6.58,3.88-6.58l-5.39-8.29s-1.63,6.29-10.36,13.13c0,0-4.42,3.59-6.12,5.07s-3.58,3.11-2.1,7,3,7.06,3,7.06-.63-5.24,1.9-7.31c3.92-3.17,8.53-7.39,12.63-10.89,0,0-12.88,30.92-15.66,35.09-2,2.86-5.28,1.1-5.28,1.1L448.37,362l4,8s10.78,3.48,13.15,4.26a4.17,4.17,0,0,1,3,3.28l1,3.14c-11.29-1.93-23.47,2.17-26.15,3.25s-1.63,2.71-1,3.48.92,1.14,2.88,3.49,3.37,1.12,3.37,1.12a30.73,30.73,0,0,1,4.15-.58c3.33-.29.32-4.53.32-4.53,7.76-3.68,16.11-1.83,16.11-1.83a2.22,2.22,0,0,1,2.1,1c1.88,5.84,2.44,17.48,2.44,17.48s2.27-5.1,4.2-10.64,1.05-8,.28-9.17-5.55-6.84-5.55-6.84a22.27,22.27,0,0,0,6.05,1.49c4.3.54,5.17-1.72,5.84-2.87a231.79,231.79,0,0,0,11.25-24.89s2-3.61,1-6.34a11.2,11.2,0,0,1,0-8.6M457.22,408.1a45.89,45.89,0,0,0-6.69-4.79l-14.61-6.57,1-1-4-5s-3.1,2.39-5.13,3.92-3.36.32-3.36.32,1.86,4.17,2.86,6.07,3.3,0,3.3,0c5.21,1.76,24.19,11.75,24.19,11.75a13.57,13.57,0,0,1,.25,7c-.44,2.38-1.42,5.31-3.5,6.67-6.29,4.88-16.24-4.73-16.24-4.73,4.71,7.08,7.32,8.34,7.32,8.34,9.2,6,14.27-1.28,14.27-1.28,5.78-6.24,4.65-16.29,4.65-16.29S459.53,410.34,457.22,408.1ZM411.47,451s0-1.44-4-6.27-6.86-8.15-6.86-8.15l1.19-.49-1.19-6.19-5,.89s-3.68,1.3-5.54-1.33l.4,6.1s.2,3.15,4,2.74L409,455.34l-18.52,14.08-.06,0s3.42-9.22-3.18-13.26c-4.25-2.58-6.19-3.14-9-4.92l-3,27.12L362.93,485l-8.49-8.75-1.78,6.4,5,5.45-17.09,6.18-18-11.75-.25,6.38,11.5,7.79s-8.76,3.1-11.25,3.83c-4.06,1.23-6.87-2.67-6.87-2.67.19,5.61,1.56,7.52,1.56,7.52C318.68,508.88,323,507,323,507a315.17,315.17,0,0,0,36.23-12.25l.66-4.28,2.12,2.38c4.61-1.76,14.88-7.27,14.88-7.27a23.82,23.82,0,0,0,2.32,3.81c4.29,6.95,10.32,5.73,12.59,4.88a13.26,13.26,0,0,0,6.47-5.17,12.32,12.32,0,0,0,1.93-9.47c-.13-.87-.16-1.78-.3-2.69-.42-3.37-.42-4-.42-4l-.79-.3c6.35-3.91,15.55-12.06,15.55-12.06Zm-30.78,23.76,1.38-14.81a16.84,16.84,0,0,1,3.07,2.52c2.56,2.61,1.77,5.76,1,7.58C385,472.93,380.69,474.71,380.69,474.71Zm9.42,10.93a5.81,5.81,0,0,1-8-3s4.42-2.66,5.72-3.25,3.27-1.47,5.27-.79,2.54,1,2.54,1S395.15,482.93,390.11,485.64Zm-38.11-17-7.36-2.24-1.93,5.77,7.71,1.69Z"></path>
      <path d="M169.51,320.91l-3.41-10.79h2.77l2,7.07,1.85-7.07h2.75l1.81,7.07,2.06-7.07h2.81l-3.47,10.79H176L174.11,314l-1.82,6.94Z"></path>
      <path d="M185.69,320.91l-3.42-10.79h2.78l2,7.07,1.86-7.07h2.75l1.8,7.07,2.06-7.07h2.82l-3.47,10.79h-2.74L190.29,314l-1.83,6.94Z"></path>
      <path d="M201.87,320.91l-3.41-10.79h2.77l2,7.07,1.86-7.07h2.76l1.8,7.07,2.06-7.07h2.81l-3.46,10.79h-2.75L206.47,314l-1.82,6.94Z"></path>
      <path d="M215.27,320.91v-2.86h2.85v2.86Z"></path>
      <path d="M223.89,306v5.47a4.2,4.2,0,0,1,3.3-1.61,4.34,4.34,0,0,1,1.79.36,3.17,3.17,0,0,1,1.19.93,3.69,3.69,0,0,1,.55,1.27,12.09,12.09,0,0,1,.14,2.14v6.33H228v-5.7a8.35,8.35,0,0,0-.16-2.15,1.37,1.37,0,0,0-.57-.73,1.86,1.86,0,0,0-1-.27,2.46,2.46,0,0,0-1.27.34,2,2,0,0,0-.81,1.05,6,6,0,0,0-.27,2.05v5.41H221V306Z"></path>
      <path d="M235.89,313.41l-2.59-.47a4,4,0,0,1,1.5-2.31,5.52,5.52,0,0,1,3.17-.75,6.73,6.73,0,0,1,2.85.45,2.86,2.86,0,0,1,1.32,1.15,6,6,0,0,1,.37,2.55l0,3.34a11.52,11.52,0,0,0,.14,2.09,7.23,7.23,0,0,0,.51,1.45h-2.82c-.07-.19-.17-.47-.27-.85a1.77,1.77,0,0,0-.11-.32,5,5,0,0,1-1.57,1.06,4.54,4.54,0,0,1-1.77.35,3.7,3.7,0,0,1-2.63-.9,3.05,3.05,0,0,1-1-2.29,3,3,0,0,1,.43-1.62,2.88,2.88,0,0,1,1.23-1.11,9.71,9.71,0,0,1,2.27-.66,16.07,16.07,0,0,0,2.77-.7v-.29a1.45,1.45,0,0,0-.41-1.17,2.45,2.45,0,0,0-1.53-.35,2.08,2.08,0,0,0-1.19.3A2.14,2.14,0,0,0,235.89,313.41Zm3.82,2.32c-.37.12-1,.26-1.74.43a5.58,5.58,0,0,0-1.55.5,1.21,1.21,0,0,0-.56,1,1.38,1.38,0,0,0,.45,1,1.51,1.51,0,0,0,1.14.44,2.47,2.47,0,0,0,1.47-.51,1.8,1.8,0,0,0,.68-.94,5.89,5.89,0,0,0,.11-1.39Z"></path>
      <path d="M245.33,320.91V306h2.85v14.89Z"></path>
      <path d="M253.24,313.41l-2.59-.47a4,4,0,0,1,1.5-2.31,5.53,5.53,0,0,1,3.18-.75,6.74,6.74,0,0,1,2.84.45,2.78,2.78,0,0,1,1.31,1.15,5.76,5.76,0,0,1,.38,2.55l0,3.34a11.74,11.74,0,0,0,.13,2.09,6.17,6.17,0,0,0,.51,1.45h-2.82c-.08-.19-.16-.47-.27-.85-.05-.17-.09-.27-.1-.32a5.37,5.37,0,0,1-1.57,1.06,4.63,4.63,0,0,1-1.78.35,3.66,3.66,0,0,1-2.62-.9,3.19,3.19,0,0,1-.53-3.91,2.88,2.88,0,0,1,1.23-1.11,9.71,9.71,0,0,1,2.27-.66,16.07,16.07,0,0,0,2.77-.7v-.29a1.45,1.45,0,0,0-.41-1.17,2.45,2.45,0,0,0-1.53-.35,2,2,0,0,0-1.19.3A2.07,2.07,0,0,0,253.24,313.41Zm3.82,2.32c-.37.12-.95.26-1.73.43a5.56,5.56,0,0,0-1.56.5,1.21,1.21,0,0,0-.56,1,1.38,1.38,0,0,0,.45,1,1.5,1.5,0,0,0,1.13.44,2.48,2.48,0,0,0,1.48-.51,1.8,1.8,0,0,0,.68-.94,5.89,5.89,0,0,0,.11-1.39Z"></path>
      <path d="M262.68,320.91V306h2.85v14.89Z"></path>
      <path d="M268.46,308.66V306h2.85v2.64Zm0,12.25V310.12h2.85v10.79Z"></path>
      <path d="M284.06,320.91H281.2v-5.5a9.24,9.24,0,0,0-.18-2.27,1.61,1.61,0,0,0-.6-.79,1.7,1.7,0,0,0-1-.29,2.31,2.31,0,0,0-1.33.4,2.16,2.16,0,0,0-.81,1.08,9.72,9.72,0,0,0-.21,2.48v4.89h-2.86V310.12h2.65v1.59a4.31,4.31,0,0,1,3.55-1.83,4.41,4.41,0,0,1,1.73.33,2.83,2.83,0,0,1,1.74,2.07,8.5,8.5,0,0,1,.17,1.92Z"></path>
      <path d="M296.84,320.91h-2.65v-1.58a4.3,4.3,0,0,1-1.56,1.37,4,4,0,0,1-1.82.45,4.11,4.11,0,0,1-3.18-1.5,6.09,6.09,0,0,1-1.33-4.17,6,6,0,0,1,1.3-4.17,4.16,4.16,0,0,1,3.25-1.43,4,4,0,0,1,3.14,1.5V306h2.85Zm-7.62-5.63a4.94,4.94,0,0,0,.48,2.5,2.16,2.16,0,0,0,1.93,1.12,2.08,2.08,0,0,0,1.67-.84,3.86,3.86,0,0,0,.7-2.5,4.21,4.21,0,0,0-.68-2.68,2.08,2.08,0,0,0-1.71-.82,2.16,2.16,0,0,0-1.71.81A3.67,3.67,0,0,0,289.22,315.28Z"></path>
      <path d="M299.66,308.66V306h2.85v2.64Zm0,12.25V310.12h2.85v10.79Z"></path>
      <path d="M307.57,313.41l-2.6-.47a4.08,4.08,0,0,1,1.51-2.31,5.48,5.48,0,0,1,3.16-.75,6.7,6.7,0,0,1,2.85.45,2.81,2.81,0,0,1,1.32,1.15,5.91,5.91,0,0,1,.38,2.55l0,3.34a11.74,11.74,0,0,0,.13,2.09,6.23,6.23,0,0,0,.52,1.45H312a8.41,8.41,0,0,1-.28-.85c0-.17-.08-.27-.1-.32A5.24,5.24,0,0,1,310,320.8a4.59,4.59,0,0,1-1.78.35,3.67,3.67,0,0,1-2.62-.9,3.21,3.21,0,0,1-.52-3.91,2.8,2.8,0,0,1,1.22-1.11,9.71,9.71,0,0,1,2.27-.66,16.07,16.07,0,0,0,2.77-.7v-.29a1.48,1.48,0,0,0-.4-1.17,2.48,2.48,0,0,0-1.54-.35,1.69,1.69,0,0,0-1.87,1.35Zm3.81,2.32c-.36.12-.94.26-1.74.43a5.71,5.71,0,0,0-1.55.5,1.2,1.2,0,0,0-.55,1,1.37,1.37,0,0,0,.44,1,1.54,1.54,0,0,0,1.14.44,2.45,2.45,0,0,0,1.47-.51,1.74,1.74,0,0,0,.68-.94,5.38,5.38,0,0,0,.11-1.39Z"></path>
      <path d="M317,320.91v-2.86h2.86v2.86Z"></path>
      <path d="M322.12,315.36a5.79,5.79,0,0,1,.7-2.75,4.7,4.7,0,0,1,2-2,5.86,5.86,0,0,1,2.87-.7,5.43,5.43,0,0,1,4,1.58,6,6,0,0,1,0,8.08,5.34,5.34,0,0,1-4,1.61,6.2,6.2,0,0,1-2.83-.67,4.55,4.55,0,0,1-2.05-2A6.46,6.46,0,0,1,322.12,315.36Zm2.93.15a3.55,3.55,0,0,0,.76,2.46,2.47,2.47,0,0,0,3.75,0,3.59,3.59,0,0,0,.76-2.48,3.5,3.5,0,0,0-.76-2.43,2.47,2.47,0,0,0-3.75,0A3.54,3.54,0,0,0,325.05,315.51Z"></path>
      <path d="M338.22,320.91h-2.85V310.12H338v1.53a4.51,4.51,0,0,1,1.22-1.43,2.27,2.27,0,0,1,1.24-.34,3.75,3.75,0,0,1,1.88.53l-.88,2.49a2.56,2.56,0,0,0-1.35-.46,1.59,1.59,0,0,0-1,.32,2.29,2.29,0,0,0-.65,1.2,16.84,16.84,0,0,0-.24,3.62Z"></path>
      <path d="M343.32,321.62l3.26.4a1.16,1.16,0,0,0,.38.78,2.18,2.18,0,0,0,1.28.3,3.39,3.39,0,0,0,1.68-.33,1.4,1.4,0,0,0,.57-.72,4.79,4.79,0,0,0,.12-1.31v-1.58a3.86,3.86,0,0,1-3.23,1.75,4,4,0,0,1-3.44-1.84,6.3,6.3,0,0,1-1-3.62,5.94,5.94,0,0,1,1.3-4.14,4.19,4.19,0,0,1,3.25-1.43,4,4,0,0,1,3.3,1.75v-1.51h2.67v9.68a9.27,9.27,0,0,1-.32,2.85,3.4,3.4,0,0,1-.88,1.48,3.91,3.91,0,0,1-1.52.86,8.45,8.45,0,0,1-2.4.29,6.18,6.18,0,0,1-3.89-.94,2.94,2.94,0,0,1-1.15-2.37C343.31,321.87,343.32,321.75,343.32,321.62Zm2.55-6.33a3.84,3.84,0,0,0,.67,2.51,2.06,2.06,0,0,0,1.64.8,2.26,2.26,0,0,0,1.76-.81,3.6,3.6,0,0,0,.73-2.43,3.79,3.79,0,0,0-.7-2.49,2.18,2.18,0,0,0-1.74-.81,2.11,2.11,0,0,0-1.69.8A3.67,3.67,0,0,0,345.87,315.29Z"></path>
      <circle class="cls-4" cx="491.04" cy="22.36" r="19.94"></circle>
      <text class="cls-5" transform="translate(482.04 31.88)">R</text>
    </g>
  </g>
</svg>
